<svg xmlns="http://www.w3.org/2000/svg" viewBox="0 0 600 400">
  <defs>
    <linearGradient id="dashboardGradient" x1="0%" y1="0%" x2="100%" y2="100%">
      <stop offset="0%" style="stop-color:#667eea;stop-opacity:1" />
      <stop offset="100%" style="stop-color:#764ba2;stop-opacity:1" />
    </linearGradient>
    <linearGradient id="screenGradient" x1="0%" y1="0%" x2="0%" y2="100%">
      <stop offset="0%" style="stop-color:#f8f9ff;stop-opacity:1" />
      <stop offset="100%" style="stop-color:#e6f0ff;stop-opacity:1" />
    </linearGradient>
    <linearGradient id="chartGradient" x1="0%" y1="100%" x2="0%" y2="0%">
      <stop offset="0%" style="stop-color:#4fc3f7;stop-opacity:0.8" />
      <stop offset="100%" style="stop-color:#29b6f6;stop-opacity:1" />
    </linearGradient>
  </defs>
  
  <!-- Background -->
  <rect width="600" height="400" fill="url(#dashboardGradient)"/>
  
  <!-- Floating geometric shapes -->
  <circle cx="80" cy="80" r="40" fill="rgba(255,255,255,0.1)" opacity="0.6"/>
  <circle cx="520" cy="320" r="35" fill="rgba(255,255,255,0.1)" opacity="0.6"/>
  <polygon points="550,50 580,90 520,90" fill="rgba(255,255,255,0.1)" opacity="0.5"/>
  
  <!-- Computer Monitor -->
  <rect x="120" y="80" width="360" height="240" fill="#2c3e50" rx="8"/>
  <rect x="130" y="90" width="340" height="200" fill="url(#screenGradient)" rx="4"/>
  
  <!-- Monitor Stand -->
  <rect x="270" y="320" width="60" height="8" fill="#34495e" rx="4"/>
  <rect x="290" y="315" width="20" height="15" fill="#34495e" rx="2"/>
  
  <!-- Dashboard Content -->
  <!-- Header Bar -->
  <rect x="135" y="95" width="330" height="25" fill="#667eea" rx="2"/>
  <text x="145" y="111" fill="white" font-size="12" font-weight="bold">Admin Dashboard</text>
  
  <!-- Stats Cards -->
  <rect x="145" y="130" width="70" height="45" fill="white" rx="4" stroke="#e0e6ed" stroke-width="1"/>
  <text x="150" y="145" fill="#667eea" font-size="8" font-weight="bold">COMPLAINTS</text>
  <text x="150" y="165" fill="#2c3e50" font-size="16" font-weight="bold">1,247</text>
  
  <rect x="225" y="130" width="70" height="45" fill="white" rx="4" stroke="#e0e6ed" stroke-width="1"/>
  <text x="230" y="145" fill="#27ae60" font-size="8" font-weight="bold">RESOLVED</text>
  <text x="230" y="165" fill="#2c3e50" font-size="16" font-weight="bold">892</text>
  
  <rect x="305" y="130" width="70" height="45" fill="white" rx="4" stroke="#e0e6ed" stroke-width="1"/>
  <text x="310" y="145" fill="#f39c12" font-size="8" font-weight="bold">PENDING</text>
  <text x="310" y="165" fill="#2c3e50" font-size="16" font-weight="bold">355</text>
  
  <rect x="385" y="130" width="70" height="45" fill="white" rx="4" stroke="#e0e6ed" stroke-width="1"/>
  <text x="390" y="145" fill="#e74c3c" font-size="8" font-weight="bold">CRITICAL</text>
  <text x="390" y="165" fill="#2c3e50" font-size="16" font-weight="bold">23</text>
  
  <!-- Chart Area -->
  <rect x="145" y="185" width="150" height="90" fill="white" rx="4" stroke="#e0e6ed" stroke-width="1"/>
  <text x="150" y="200" fill="#2c3e50" font-size="10" font-weight="bold">Complaints Trend</text>
  
  <!-- Simple Bar Chart -->
  <rect x="155" y="240" width="12" height="25" fill="url(#chartGradient)" rx="1"/>
  <rect x="175" y="220" width="12" height="45" fill="url(#chartGradient)" rx="1"/>
  <rect x="195" y="235" width="12" height="30" fill="url(#chartGradient)" rx="1"/>
  <rect x="215" y="210" width="12" height="55" fill="url(#chartGradient)" rx="1"/>
  <rect x="235" y="225" width="12" height="40" fill="url(#chartGradient)" rx="1"/>
  <rect x="255" y="230" width="12" height="35" fill="url(#chartGradient)" rx="1"/>
  <rect x="275" y="215" width="12" height="50" fill="url(#chartGradient)" rx="1"/>
  
  <!-- Table Area -->
  <rect x="305" y="185" width="150" height="90" fill="white" rx="4" stroke="#e0e6ed" stroke-width="1"/>
  <text x="310" y="200" fill="#2c3e50" font-size="10" font-weight="bold">Recent Updates</text>
  
  <!-- Table Rows -->
  <rect x="310" y="205" width="140" height="12" fill="#f8f9fa" rx="1"/>
  <text x="315" y="214" fill="#495057" font-size="8">Water Supply - Resolved</text>
  
  <rect x="310" y="220" width="140" height="12" fill="white" rx="1"/>
  <text x="315" y="229" fill="#495057" font-size="8">Road Repair - Processing</text>
  
  <rect x="310" y="235" width="140" height="12" fill="#f8f9fa" rx="1"/>
  <text x="315" y="244" fill="#495057" font-size="8">Electricity - New</text>
  
  <rect x="310" y="250" width="140" height="12" fill="white" rx="1"/>
  <text x="315" y="259" fill="#495057" font-size="8">Sanitation - Review</text>
  
  <!-- Admin Figure -->
  <circle cx="50" cy="200" r="25" fill="#3498db"/>
  <circle cx="50" cy="190" r="12" fill="#f39c12"/>
  <rect x="42" y="210" width="16" height="20" fill="#2c3e50" rx="8"/>
  <rect x="38" y="220" width="8" height="15" fill="#34495e" rx="4"/>
  <rect x="54" y="220" width="8" height="15" fill="#34495e" rx="4"/>
  
  <!-- Icons and Elements -->
  <circle cx="550" cy="120" r="15" fill="rgba(255,255,255,0.2)"/>
  <text x="550" y="127" text-anchor="middle" fill="white" font-size="16">⚙️</text>
  
  <circle cx="550" cy="160" r="15" fill="rgba(255,255,255,0.2)"/>
  <text x="550" y="167" text-anchor="middle" fill="white" font-size="16">📊</text>
  
  <circle cx="550" cy="200" r="15" fill="rgba(255,255,255,0.2)"/>
  <text x="550" y="207" text-anchor="middle" fill="white" font-size="16">👥</text>
  
  <!-- Data Flow Lines -->
  <path d="M 100 200 Q 120 190 140 200" stroke="rgba(255,255,255,0.3)" stroke-width="2" fill="none"/>
  <path d="M 480 200 Q 500 190 520 200" stroke="rgba(255,255,255,0.3)" stroke-width="2" fill="none"/>
  
  <!-- Notification Dots -->
  <circle cx="470" cy="100" r="4" fill="#e74c3c"/>
  <circle cx="480" cy="105" r="3" fill="#f39c12"/>
  <circle cx="485" cy="95" r="2" fill="#27ae60"/>
</svg>
